<svg width="1302" height="683" viewBox="0 0 1302 683" fill="none" xmlns="http://www.w3.org/2000/svg">
<path d="M558.4 55.3L558.9 54.8L560.6 52.8L561 52.2L560.5 51.7L557.2 48.7L556.9 48.4L556.4 48.5L553.8 49.3L547.8 45.5L546.2 44.4L546.7 46.3L547.6 50.3L547.7 50.6L547.9 50.7L550.9 53L551.1 53.2H551.4L555.4 52.9L557.8 54.8L558.4 55.3ZM558.4 55.3H558.6L561.3 53.3L561.6 53L562 53.2L564.7 54.2H564.9L565 54.4L568.1 58L568.6 58.6L564.3 62.9L563.8 62.8L558.6 61L555.3 61.8L555.9 64.8L556 65.1L555.9 65.4L554.9 67.2L554.3 68.2L553.6 67.3L550.5 63.4L547.3 60.3L547.1 60V59.6L547.5 56.1V55.2L548.5 55.5L552.8 56.7L554.9 55.8H555.1L558.4 55.3ZM1107.7 673L1108.1 678.9L1108.2 680.6L1109.4 679.4L1118.2 671.1L1133.1 671.3H1133.4L1133.6 671.1L1144.7 662.2L1144.8 662.1L1151.5 648.7L1151.6 648.6V648.5L1154.8 612.3L1159.2 593.4L1159.3 593.3L1159.2 593.1L1156.3 570.9L1156.2 570.6L1156.3 570.3L1158.2 545.2V545L1158.1 544.8L1155.4 537V536.9H1155.3L1143 511.7V511.6H1142.9L1139 506.8L1135.4 489.4V489.2L1133.5 484.7L1143.8 490.3L1147.7 500.7L1147.8 500.8V500.9L1154 508.7L1161.4 520.6L1166.7 529.3L1166.9 529.5L1172.9 534.1L1174.7 539.4L1176.4 544.3L1176.5 544.6L1176.8 544.7L1184.1 548.2L1185.1 555.4V555.6L1185.3 555.8L1193.1 565.8L1194.4 567.4L1194.6 565.4L1195.2 556.6V556.5L1194.3 550.7L1199.6 550.4L1199.7 550.3H1199.8L1201.8 549.4L1207.2 552.2L1209.3 553.3L1208.3 551.1L1203.6 541.3L1203.4 540.9H1196.3L1189.3 537.8L1181.2 532L1176 518.6L1173.2 510.5L1178.9 507.3L1190.6 506.7L1193 506.6L1191 505.3L1164.3 487.2L1145.5 470.3L1136.8 454L1136.7 453.8L1136.6 453.7L1124.8 445.5L1119.3 438.6L1118.9 438.1L1118.4 438.3L1114.5 440L1114.2 440.2L1114.1 440.6L1113.2 444.7L1113.1 445.2L1113.6 445.5L1120.4 450.3L1123.9 455.4L1122.4 457.3L1119.5 456.6L1118.7 456.4L1118.6 457.2L1117.5 462.1L1117.4 462.6L1117.8 462.9L1124.4 467.9L1130.4 481.5L1122.6 478.3L1119.8 475L1122.4 469.9L1122.8 469.1L1122 468.8L1115.2 466H1115L1100.8 463.4H1100.5L1100.2 463.5L1089.2 469.2L1088.9 469.4L1088.8 469.8L1085.3 485L1081.7 480.3L1081 479.5L1080.4 480.3L1076 486L1072 474.4L1071.7 473.4L1070.8 474L1061.7 479.6L1054.9 478.4L1055.2 471.8L1065.4 446.4V446.2L1068 420.7L1071 408.4V408L1068.5 398L1071.8 389.1L1071.9 388.9L1071.8 388.7L1070.4 379.3L1091.3 358.8L1097.7 360L1098.4 360.1L1098.6 359.4L1099.3 356.9V356.5L1099.1 356.2L1097.7 353.9L1100 352.4L1100.2 352.2L1100.7 351.9L1106.4 348.2V348.1L1110.1 345L1115.3 343.8L1116 343.6L1115.8 342.9L1114.3 332.7L1123 329.9H1123.1L1123.3 329.8L1130.3 323.6L1135 323.4L1131 329.2L1130.6 329.7L1131.1 330.2L1135.8 334.3L1136.4 334.8L1136.9 334.2L1143.7 326.5L1143.9 326.3V326.1L1145.6 314.4L1151.3 312.3L1151.5 312.2L1151.6 312L1156.5 305.6L1157 305L1156.4 304.5L1151.3 300.7L1150.7 300.2L1150.2 300.8L1146.3 305.7L1142.4 302L1141.2 280.4V280.3L1141.1 280.2L1137.1 267.4L1138.4 258.2L1145.9 247.3L1150 247.2L1150.5 247.1L1150.7 246.6L1152.3 241.7L1160.6 253L1160.9 253.4L1161.3 253.3L1167.7 252.2L1168.3 252.1L1168.4 251.5L1168.8 246.9V246.7L1167.3 237.1V237L1165.7 230.3V230.2L1169.6 226.5L1170.2 226L1159.1 212.7L1161.4 205L1169.3 202.3L1165 208.6L1164.8 208.9L1164.9 209.2L1166.2 215.6L1166.3 215.9L1166.5 216.1L1174.8 221.9L1175 222H1175.2L1178.3 222.2L1178.1 227.4V228L1178.7 228.2L1181.6 228.8L1178.3 245.1V245.4L1178.4 245.7L1182.1 251.9L1183.4 271.5V271.6L1186.4 284.4V284.5L1190.3 296.8L1185.9 301.6L1185.6 301.9L1185.8 302.3L1187.2 306.9L1184.8 309.9L1184.4 310.5L1184.9 310.9L1191.3 318.4L1192.3 330.3V330.6L1192.5 330.8L1201.6 341L1202.1 341.5V341.6L1212.3 353.1L1212.4 353.2H1212.5L1271.2 392.6L1272.5 393.5L1272.4 391.9L1270.7 370.6V370.5L1268.3 360.7V360.5L1268.1 360.3L1261.4 353.5L1262 343.8L1265.3 341L1265.9 340.5L1265.4 339.9L1253.5 326.1L1253.7 316.9L1258.6 311.6L1258.9 311.3L1258.8 310.9L1257.5 305.3L1257.4 304.9L1256.9 304.7L1247.1 301.9L1237.1 284.2L1238.4 283.4L1241.2 287.2L1241.6 287.8L1242.3 287.4L1247.4 284.2L1248.2 283.7L1247.5 283L1239.6 275.5L1239.2 275.1L1238.7 275.4L1234.8 277.5L1228.5 273.4L1228.3 273.3V273.1L1225.1 265.6L1224.9 265.1H1216.7L1215.9 269.9L1212.6 269.6L1198.4 241.2L1199.2 232.9L1204.4 231.7L1205.2 231.5L1205 230.7L1201.3 216L1208.6 221.8L1209.9 222.8V221.2L1210.1 201L1216.9 194L1227.4 193.8H1228.5L1228.1 192.7L1222 177.7L1219.1 145.3L1219 144.6V144.5L1216.9 121.4L1216.8 121L1216.5 120.8L1211.2 117.8L1225.3 108.1L1225.8 107.7L1225.6 107.2L1223.4 100.2L1223.3 99.6H1222.8L1194.7 97.3L1194.3 97.2L1194 97.6L1190.8 101.8L1183.5 102.4H1182.9L1182.8 103.1L1182 108.3L1177.3 108V101L1183.8 98.8L1184.1 98.7L1184.3 98.4L1187 92.7L1187.1 92.5V92.2L1185.6 77.1V76.6L1185.1 76.4L1182.3 75.4L1182 75.2L1181.7 75.5L1179.4 76.9L1179.3 72.7L1179.2 71.6L1178.2 72L1172.1 74.3L1168.3 69.9L1169.6 63.4L1174.1 67.4L1174.6 67.8L1175.1 67.4L1177.7 65.3L1181.9 69.9L1182.7 70.8L1183.2 69.6L1186 63.2L1186.1 63.1V62.9L1185.4 55.6L1190 51.8L1198.6 52.6L1198.9 52.7L1199.1 52.5L1214 41.2L1214.7 40.7L1214.2 40.1L1211.9 37.4L1217.3 38.2L1218.2 38.3V37.3L1217.9 30.1V29.2L1217 29.3L1209.5 30.7L1207.5 26.2L1207.3 25.8L1206.9 25.7L1197.3 23.8L1200.8 19.5L1201.3 18.9L1200.6 18.4L1196 15L1200.2 12L1200.8 11.5L1200.3 10.9L1194 2.6L1193.6 2L1192.9 2.4L1174.9 13L1174.5 13.2V13.6L1173.4 22.1L1168.7 28.4L1168.1 29.2L1169 29.6L1179.4 33.8L1174.8 35.9L1155.5 30.6L1155.1 30.5L1154.8 30.7L1132.1 45.8L1098.1 64.3L1097.9 64.4L1097.8 64.6L1088.7 79.5L1088.5 79.8L1088.6 80.1L1089.3 83.9L1083.8 85.4H1083.6L1083.5 85.5L1074.8 93.4L1074.2 93.9L1074.7 94.5L1080.9 102.2L1081.2 102.6L1081.7 102.4L1086.9 100.8L1094.5 105.1L1093.7 112.2L1086.7 113H1086.5L1086.4 113.1L1081.7 115.9L1071.3 109.3L1070.1 108.5V123.4L1059.3 131.5L1059.2 131.6L1059.1 131.8L1054.9 139.9L1054.6 140.5L1054.5 140.6L1052.4 144.8L1041.4 151L1033.3 143.3L1033.1 143.1L1032.8 143L1024.3 142.2H1024.1L1023.8 142.3L1011.7 150.2L1011.5 150.4L1003.2 160.6L1003.1 160.7V160.9L1000.2 170.9L995.4 172.4L988.9 169.1L988.7 169H988.5L981.9 169.7H981.5L981.3 170L978.4 173.8L976.1 171.8L975.5 171.3L975 171.8L972.8 174.2L970.5 172.1L976.1 166.6L974.3 166.5L962.9 165.6H962.5L962.3 165.8L955.7 171.6L955.3 171.9L955.5 172.4L958.9 184.3L954 189V180.5H948.5L948.2 180.7L944.8 183.8L944.1 180.7L950.4 175.1L952 173.6L949.8 173.7L942.8 174.1H942.6L942.4 174.2L921.6 184.9L920.7 185.3L921.3 186.1L924.9 190.4L919.5 195.6L919.1 196.1L919.3 196.6L922.1 201.5L925.9 199.6L926.3 204.6V204.8L926.5 205L930.7 210L924.1 211.6L923.8 211.7L923.7 211.9L921.3 215.1L921.1 215.5L921.2 215.9L923 220.1L917.8 220.9L909.4 218.4L908.7 218.2L908.4 219L906.1 227.9L892.3 225.4L891.4 225.3V246.6L882.3 245.1L867.5 231.6L872.5 228.2L873.1 227.7L872.7 227.1L863.1 212.8L863 212.6L862.8 212.5L856.6 209.5L856.3 209.4L856 209.5L846.9 212.6L836.8 208.7L835.8 208.3L835.7 209.3L834.2 225L816.1 232.8L809.7 228.4L810.7 225.2L810.9 224.2H809.9L790.5 223.9H790.1L789.9 224.3L784.8 231.1L784.7 231.2V231.3L784.3 232.6L783.7 229.3L783.6 229L783.4 228.8L779.8 225.6L779.2 225.1L778.7 225.7L774.5 230.1L769.2 232.7L769.1 232.8L768.8 233L768.3 233.2L762.3 236.2L762.2 236.3L755.9 241.1L747.3 243.6L747 243.7L746.9 243.9L745 247.2L745.2 242.1L762.6 224H762.7V223.9L772.5 206.2V206.1L772.6 206L777 190.3L777.2 189.8L776.9 189.5L763.3 174L763 173.7H762.7L750 173.3H749.5L749.3 173.6L745 179.7L741.5 180.3L744.9 170.7L745.3 169.8L744.3 169.7L735.2 168.5L737.8 164.7L738.2 164.1L737.7 163.6L731.3 158.3L730.9 158L730.5 158.2L724.8 160.3L724.5 160.4L724.4 160.6L715.2 174.2L715 174.5L715.1 174.9L717 182.1L708.2 182.6L707.4 182.7L707.5 183.5L707.7 186V186.2L707.8 186.4L710.3 190.1L705.2 189H704.8L704.5 189.2L701.2 192.4L694 191L693 187.9L692.9 187.3H692.3L680.8 187.5H680V188.3L680.2 194.2L667.1 196L666.7 196.2L657.5 203.5L650.6 203.7H650.3L650.1 203.9L644.8 208.6L644.6 208.7L644.5 209L642.2 218.6L642.1 218.9L642.3 219.1L646.2 226.3L640.6 227.7L622.7 224.8H622.6L612.1 224.6H611.7L611.4 225L608.3 230.7L608.2 230.9V231.1L607.7 246V246.4L608 246.6L614.5 252.9L617.1 259.1H609.6L602 244.8L601.8 244.4H601.3L595.5 244.7L595.1 244.8H594.7L590.4 245L590 245.1V245L593.7 244.4L594.5 244.2L594.3 243.4L592.8 238L592.5 237L591.6 237.5L587.2 239.9L587 240.1L586.9 240.3L585.7 242.6L585.3 243.4L586.1 243.7L589.6 245L589.8 245.1L589.7 245.6L587.9 252L581.8 246.5L580.9 245.7L580.5 246.9L578.6 253.5L578.5 253.9L578.8 254.2L586 262.1L586.3 267L574.4 256.3L574 249.3L579.6 242.5L579.8 242.1L580.7 229.4L579.5 230L577.1 231.1L576.8 231.2L576.7 231.5L574 239L570.1 242.6L565.8 243.8L565.5 243.9L565.3 244.1L561.1 250.5L561 250.7V251L561.2 267.6L550.9 283.8L550.7 284L550.8 284.2L551.4 294.2V295H562.5L570.7 304.9V314.3L564.8 321.6L564.4 322L564.7 322.4L566.4 325.8L566.5 326.1L566.7 326.2L569.8 327.9L563.4 329.4L561.1 320.9L567.8 309.3L567.9 309L567.8 308.6L564.8 299.7L564.7 299.2H564.2L553.8 297.7L553.4 297.6L553.1 297.9L547.4 303.4L547.2 303.6L547.1 303.9L546.5 316.2L537.3 325.7L528.7 328.8L528.5 328.9L528.4 329L522.9 334.9L503.8 323.1V318.9L509.95 321.7L516.1 324.5L516.4 324.7L516.7 324.5L523.8 321.8V321.7H523.9L535.2 314.5L535.3 314.3L535.5 314.1L543.1 298.8L543.2 298.6V298.3L541.9 290.3L554.8 259.6V259.5H554.9L556.3 254.2L556.4 254V253.8L555 247.2L563.1 239.4L563.3 239.2L563.4 238.9L565.1 227.7V227.3L564.9 227.1L559.2 219.4L564.6 218.7L565.4 218.6L565.3 217.8L564.3 209.6L564.2 208.9H563.5L556.8 208.4L556.1 208.3L556 209.1L555.5 215.1V215.4L556.3 217.4L553.8 216.3L553.3 216.2L553 216.4L546.6 221.3L546.5 221.4V221.5L538.8 231.2L533.1 236.8L524.3 238.9H524.1L524 239.1L519.3 243.5L518.8 244L519.2 244.6L523.6 250.3L518.9 258.8L512.2 260.8L511.6 261V261.5L511.4 264.7V265.1L511.6 265.3L517.4 271.4L515.5 276.9L515.4 277.1L515.5 277.3L516.5 281.2L516.6 281.3V281.4L518.6 284.3L511.9 290.4L510 287.3L507.9 278.2L507.8 278.1V278L499.5 264.7L499.3 264.3L499.1 264L495 256.5L494.9 256.4L484.3 244.9L484 244.6H475L474.8 245.2L473.8 249.9V250.1L473.5 256.7L468.4 259.7L465.5 259.1L465 259L464.7 259.5L463.1 261.9L460.5 259.9L464.5 256.2L464.7 256V250.2H463.9L449.1 249.9L441.8 244.6L441.6 244.4H441.3L430.3 245.4L427.3 241.4L432.7 240.9L433.1 240.8L433.3 240.5L437 233.4L437.4 232.5L436.4 232.3L427.3 230.2L426.8 230L426.5 230.4L423 234.6L421.4 231.8L421.3 231.5L420.9 231.4L397.5 225.7L397.1 225.6L394.3 228.3L391.5 225.7L391.1 225.3L390.6 225.6L378.8 232.5L373.2 227.1L374.9 222L375 221.8L373.3 216.7L379.8 214.6L386.5 219.2L387.2 219.7L387.6 219L391 213.5L391.1 213.3V213L390.9 203V202.7L390.7 202.5L381.3 192.3L380.4 191.2L380 192.6L377.3 202.3L364.8 210.5L364.5 210.7V211L363.5 217.1L357.9 222.1L357.5 222.5L357.2 222.7L356.9 223.1L351.2 228.2L349.2 224.5L352.4 223.8L353.5 223.6L353 222.7L347.7 212.7L347.4 212.2L346.8 212.3L338.9 213.5L331 210.8L330.9 210.7L330.7 210.8L320.7 212.3H320.2L320 212.8L314.9 225.7L311.8 224L306.2 211L307 200.8L307.1 199.8L306.2 199.9L296.8 201L296.3 201.1L296.1 201.6L293.6 210.5L293.5 210.9L293.8 211.2L297.4 215.7L294.3 219.7L289.1 216.8L288.1 210L288 209.5V209.2L287.5 205.9L288.1 203L288.2 202.7L288 202.4L285.5 199L287.8 194.8L295.5 185.2L301.8 183.2L302.1 183.1L302.3 182.8L306.1 176.2L306.2 176.1V175.9L307.6 166.4L307.7 166.1L307.8 165.1L309.3 156.1L310.5 157.9L309.5 165.3V165.5L309.6 165.7L312.7 172.4L313.5 183.5L313.7 183.9L318 190.6L319.1 197.4V197.8L319.5 198L336 208L336.3 208.2L336.6 208.1L346.8 206.2L347.1 206.1L347.3 205.9L355 195.4V195.3L355.1 195.1L357.2 184L357.3 183.9L357.2 183.7L353.8 170.6L354.3 151.5V151.4L354.2 151.3L352.1 144.3L352 144.2V144.1L346.8 135.7L346 129.8L347.3 129L350 132.8L350.5 133.4L351.1 133L354.3 130.9L354.9 130.5L354.6 129.9L351.6 124.1L351.5 123.9L351.3 123.8L340.1 116.2L339.7 116L323.5 114.5H323.3L323 114.7L319.9 117L311.8 121.7L311.4 121.9L311.6 128.5L306.4 136.9L296 137.1H295.6L295.4 137.4L291.9 141.8L291.7 142.1L291.4 142.4L291.3 142.6L282.5 153.7L278.2 153.5H278L277.7 153.7L272 157.6L268 157.4L267.5 157.3L267.3 157.8L265.6 162.1L263.8 165.5L260 168.3L260.3 168.9L261.9 172L260.3 173.7L252.8 172.5L252.1 172.4L251.9 173L249.8 180.5V180.6L248.3 191.4L244.3 193.1L223.6 190.4V190.3H223.5L214.1 190.7H213.3L206.3 191H206M300.3 192.1L301 194.7L301.1 195.2L300.6 195.5L298.4 197L297.8 197.4L297.4 196.9L295.8 195.1L295.5 194.8V194.5L295.8 192.7V192.5L295.9 192.4L297.2 190.6L297.7 189.9L298.3 190.4L300 191.7L300.3 191.8V192.1ZM406 213.5L405.8 213.2L405.9 212.8L407.5 207.1L407.6 206.7L408 206.6L414.5 204.3L415 204.1L415.4 204.5L420 209.5L420.1 209.7V209.9L420.7 214.8V214.9L420.6 215.1L419.7 218.3L419.5 218.9L418.9 218.8L410.3 218.6H409.9L409.6 218.3L406 213.5ZM453.2 193.3V192.3L454.2 192.5L457.4 193.3L458 193.4V198.9L457.7 199.2L455 201.2L453.8 202L453.7 200.6L453.2 193.3ZM478.9 229.2L480.6 235.7L480.7 235.8V235.9L480.4 242.4V243.1H479.7L475 243.6L474.5 243.7L474.2 243.2L470.5 237L470.3 236.8L470.4 236.5L471.4 230.8L471.5 230.2L472 230.1L477.9 228.6L478.7 228.4L478.9 229.2ZM555.2 68.5L557.2 69.2L557.8 69.4V70L557.6 73.1L557.5 74.4L556.4 73.7L553.9 72.3L553.4 71.9L553.6 71.4L554.2 69.1L554.5 68.3L555.2 68.5ZM568.8 71.1L568.4 71.5L565.1 74.6L564.4 75.3L563.9 74.4L561.1 69.7L560.7 68.9L561.4 68.6L565.9 66.2L566.6 65.9L567 66.6L568.8 71.1ZM566.3 52.5L566 52.2L566.2 51.8L567.4 48.8L568.2 49.5L571.5 52.5L572.2 53L568.9 56.3L568.4 55.5L566.3 52.5ZM571.5 65.8L573 68.9L573.3 69.5L572.8 69.9L571 71.2L570 71.9L569.7 70.8L569.1 68L569 67.6L569.2 67.4L570.2 65.7L570.9 64.4L571.5 65.8ZM454.4 189.4L454.1 189.2L454.2 188.8L454.4 183.3V182.9L454.7 182.7L459.7 179L460 178.7L460.4 178.9L464.6 180.3L471.1 176.9L471.3 173.1L471.4 172.3L472.1 172.4L476.7 172.6L477.5 167.8L477.7 166.8L478.6 167.2L485.4 170L488.9 166.7L485.7 163.5L488.7 159.9L489 159.5L489.6 159.7L493.3 161.3L503.7 158.1L504.1 155.1L504.2 154.5L504.9 154.4L508.8 154.2L510.6 146.1L511 144.6L512 145.7L515.4 149.4L517.8 147.4L518.1 147.2H524.1L531.1 142.6L531.5 142.4L531.9 142.5L537.2 144.9L542.6 141.8L543.1 141.6L543.5 141.9L549.8 147.2L563.9 148.4L565.1 145.7L565.3 145.3L565.7 145.2L574.4 143L574.9 142.9L575.2 143.3L578.9 147.7L579.1 148V148.4L578.1 154.8L578 155.2L577.7 155.4L569 160.1L568.8 160.2H568.6L532.7 161L528.2 166.2L527.9 166.5L527.4 166.4L522.1 165.3L519.7 167.5L519.2 167.9L518.7 167.6L515.5 165.3L515 168.5L514.8 168.9L512.6 171.9L512 172.6L511.4 171.9L509.4 169.8L509 172.1L508.8 173L507.9 172.6L505 171.5L504.8 174.2L504.7 175L503.9 174.9L501.3 174.7L500.1 178.4H499.6L494.6 178.9H494.3L494.1 178.8L490.5 176.5L491.6 179.6L491.7 180L491.5 180.3L488.5 184.6L488.3 184.8H488.1L480.8 187.3L474.9 193.7L473.4 200.7L471.5 219.5L471.3 220.7L467.4 218.7L463 217.7L462.5 217.6L462.4 217L462.2 214.2L458.9 213.8L458.4 213.7L458.3 213.3L454.8 205.6L454.6 205.1L454.9 204.7L459.2 200.4L459 193.9L454.4 189.4ZM579.1 223.3L581.1 225.5L581.4 225.8L581.3 226.2L580.7 228.2L580.5 228.9L579.8 228.8L576.9 228.5L576.4 228.4L576.2 227.9L575.3 224.8L575.1 224.1L575.8 223.9L578.3 223.1L578.8 222.9L579.1 223.3ZM571.6 74.9L574.3 74.3L574.8 74.1L575.1 74.6L577 77.2L577.1 77.5L579 75.1L579.3 74.6L579.8 74.8L582.4 75.4L583.2 75.6L583 76.4L582 80.5L581.9 80.9L581.6 81L578.1 82.9L577.7 83.1L577.3 82.8L575.3 81.1L574.7 80.6L575.2 80L575.9 79.1L573.2 81.4L572.6 81.9L572.1 81.4L569.5 78.9L569 78.5L569.4 77.9L571.2 75.3L571.4 75L571.6 74.9ZM581.4 90.6L580.7 91.4L580.1 90.5L578.3 87.9L577.9 87.4L578.3 87L580.1 84.6L580.8 83.7L581.4 84.7L583.1 87.5L583.3 88L583 88.4L581.4 90.6ZM574.9 65.1L574.3 64.5L575 64L580 60.5L580.5 60.2L580.9 60.6L587.2 66.2L587.5 66.5V66.9L586.6 71.7L586.5 72.6L579.3 70.2L579.1 70.1L579 69.9L574.9 65.1ZM586.1 58.7L586 58.1L586.5 57.8L590.5 55.8L591.2 55.5L591.5 56.2L593.5 60.2L593.3 60.6L590.9 64.2L590.2 63.8L586.9 61.7L586.6 61.5V61.2L586.1 58.7ZM595 75.5L596.3 79.4L596.6 80.1L596 80.4L589 83.8L588.5 84.1L588.1 83.7L584.7 80.6L584.4 80.3V79.9L584.6 77.1V76.8L584.9 76.6L589 73.1L589.4 72.8L589.8 73L594.6 75L594.9 75.1L595 75.5ZM598.2 72.3L596.2 74.6L595.8 75L595.3 74.8L592.3 73.3L591.4 72.8L592 72.1L594.5 68.9L595 68.3L595.6 68.9L598.1 71.2L598.7 71.7L598.2 72.3ZM594.1 55.1L593.8 54.5L594.3 54.1L595.9 52.8L596.5 52.4L597 52.8L600.1 55.8L600.8 56.4L600.1 57L597.9 58.7L597.4 59.1L596.9 58.6L595.2 57.1L595.1 57V56.9L594.1 55.1ZM604.4 233.2L605.2 239.8L605.3 240.4L604.7 240.6L602.2 241.7L601.6 241.9L601.3 241.4L597.6 236.7L597.3 236.3L597.6 235.8L600.5 231.5L600.8 230.9L601.5 231.3L604 232.6L604.4 232.8V233.2ZM598.9 76.6L602.8 77.6L605.5 73.8L606.2 72.8L606.8 73.8L609.1 77.6L609.4 78L609.1 78.4L606.3 83.1L606.1 83.4H605.7L598.8 83.6H598.1L598 83L597.1 79.4V79.1L597.2 78.9L598 77L598.3 76.4L598.9 76.6ZM604.9 64.6L604.7 64L605.2 63.6L608 61.8L608.9 61.3L609.2 62.3L610.4 66.1L610.6 66.8L609.9 67L607 68.2L606.2 68.5L605.9 67.7L604.9 64.6ZM608.6 203.3L611.1 202.5L611.9 202.3L612.1 203.1L613 206.4L613.1 206.8L612.8 207.1L610.8 209.2L610.2 209.9L609.6 209.2L607.7 206.7L607.5 206.5L607.6 206.1L608 203.9L608.1 203.4L608.6 203.3ZM629 216.9L629.7 220L629.8 220.5L627 223.3L626.5 222.8L623.5 220L623 219.6L623.3 219.1L625 216.1L625.3 215.6L625.9 215.7L628.4 216.4L628.9 216.5L629 216.9ZM622.8 193.8L622.3 193.2L622.8 192.7L625.4 190.5L625.7 190.2L626.1 190.3L628.7 191.1L629 191.2L629.2 191.5L631 194.6L631.3 195.2L630.7 195.6L627.6 197.5L627.2 197.8L626.8 197.5L624.7 196H624.6L624.5 195.9L622.8 193.8ZM625.4 111.8L625.5 111.4L626 108.9L626.1 108.5L626.4 108.3L629.5 106.9L630.1 106.7L630.4 107.2L632.9 110.5L633.1 110.7V110.9L633.3 114.1V115H632.4L628.8 114.9H628.5L628.3 114.6L625.4 111.8ZM634.5 221.5L634.9 221.9L634.6 222.4L633.5 224.5L633.1 225.3L632.3 224.8L630.7 223.6L630.3 223.2L630.4 222.7L631.3 219.8L631.7 218.4L632.6 219.5L634.5 221.5ZM631.8 183.8L634.5 184.1H635.3V184.9L635.1 187V187.3L634.9 187.5L633.2 189.3L632.5 190L632 189.3L630.3 186.9L630 186.6L630.2 186.2L631 184.3L631.2 183.8H631.8ZM634.8 211.1L636 211.9L638.5 213.5L639.1 213.9L638.8 214.5L637.8 216.4L637.4 217.2L636.6 216.7L635 215.6L634.6 215.4L634.7 214.9L634.8 212.5V211.1ZM636.9 208.7L636.7 208.1L637.2 207.8L638.7 206.7L639.2 206.4L639.6 206.7L642.5 208.8L643.1 209.3L642.7 209.9L640.9 212.4L640.5 213.1L639.8 212.6L637.9 211.2L637.7 210.8L636.9 208.7ZM642 89.7L641.9 87.6V87.5L642.3 84.4V84.1L642.5 83.9L644.4 82.1L644.9 81.6L645.5 82L648.2 84.2L648.4 84.3V84.5L650.6 89.3L651 90.2L650.1 90.4L646.4 91.4L646.2 91.5L646 91.4L642.6 90.3L642.1 90.2L642 89.7ZM664 164.4V164L664.3 163.7L666.2 162.1L666.8 161.6L667.3 162.2L669.8 165.1L670 165.4V165.7L669.7 168.8L669.6 170L668.6 169.4L664.7 167.3L664.4 167.1L664.3 166.7L664 164.4ZM677.5 90.6L676.8 90.5L676.9 89.7L677.4 85.3L677.5 84.7L678.2 84.6L683.8 84.5H684.4L684.5 85.1L686.4 91.1L686.8 92.3L685.5 92.1L677.5 90.6ZM690.6 176.4L692.7 178.7L693.3 179.3L692.7 179.8L690.8 181.5L690.3 182.1L689.7 181.5L688.3 179.9L687.9 179.5L689.8 175.6L690.6 176.4ZM694.6 173.9L691.5 171.6L690.6 170.9L691.6 170.3L695.3 167.9L696.1 167.4L696.5 168.3L698 171.6L698.4 172.2L697.7 172.6L695.5 173.9L695 174.2L694.6 173.9ZM676.4 113.2L676.3 112.7L676.8 112.4L680 110.6L680.3 110.5L680.6 110.6L689 113.8L689.4 113.9L683.8 108.9L683.5 108.6V104.6L683.7 104.3L687.9 98.8L686.9 94L686.8 93.4L687.2 93.1L691.4 90.4L696.1 85.7L696.7 86.2L701.4 90.4L701.6 90.6L701.7 90.8L704.3 98.3L705.9 101.6L706.2 102.2L705.5 102.6L701.6 104.8V108.9L701.1 109.1L690.2 114L689.8 114.3L689.6 114.2L689.5 114.7L688.3 118.7L688.2 119L687.9 119.2L684 121.3L683.6 121.6L683.2 121.3L677.6 117.4L677.4 117.3L677.3 117L676.4 113.2ZM706 111.9L707.2 113L711.8 117.6L712.1 117.8L712 118.2L711.6 124.2V124.4L711.5 124.5L708.4 129.6L710.9 132.6L711.2 132.9L711.1 133.3L710.3 138.4L710.2 138.8L709.9 139L706.2 141L705.8 141.2L705.4 141L697.8 135.8L697.7 135.7L691.1 130L687.3 128.3L686.8 128.1L686.9 127.5L687 124.6V124.3L690.8 115.2L690.9 114.9L701.3 109.7L702.2 109.3L702.5 110.2L704.1 116.5L705.5 116L705.8 113.5L706 111.9ZM708.3 149.6L712.8 141.5L713.7 129.7V129.3L714.1 129.1L720.4 125.6L721.7 125L721.6 126.4L721.4 131.7L722.6 133L726.3 129.3L726.9 130L731.3 135.5L731.4 135.8V136.1L730.9 145.6V145.9L730.7 146.2L726.3 150.5H726L718.5 151L711.2 156.8L710.3 157.6L710 156.4L708.2 150.2L708.1 149.9L708.3 149.6ZM735.5 147.2L736.2 150.4L736.3 150.9L736.8 151L742.6 152.4L743.7 152.6L743.6 151.5L743.3 149.2V148.9L743 148.7L737.1 145.1L736.2 144.5L736 145.5L735.5 146.9V147.2ZM769.7 224.8L770.9 228L771.1 228.7L765.1 232.3L764.5 232.7L762.5 230.2L762.3 229.9L762.4 229.5L762.8 227.6L763 227.4L764.9 224.5L765.1 224.1H765.6L769 224.2L769.5 224.3L769.7 224.8ZM774.7 212.6L778 213L778.1 213.1L778.3 213.2L781 214.9L781.5 215.2L781.4 215.7L780.6 218.7V218.8L780.5 218.9L778.3 222.5L777.8 223.2L777.1 222.6L772.2 218.7L771.7 218.4L772 217.8L773.9 213L774.1 212.5L774.7 212.6ZM868.7 152L868.3 150.2L869.9 151.1L874.7 154L874.9 154.1L875 154.3L878.2 160.2L878.6 161L877.8 161.3L875.1 162.4L874.6 162.6L874.2 162.2L869.9 157.2L869.8 157V156.8L868.7 152ZM893 179.9L893.3 184L893.4 184.7L892.7 184.8L889.5 185.7L889.2 185.8L888.9 185.6L885.1 183.3L884.9 183.2L884.8 182.9L883.2 179.2L882.7 177.9L884 178.1L892.3 179.2H892.9L893 179.9ZM908.3 162.5L911.7 165.4L912 165.6L911.9 166.1L911.2 172L911.1 172.7H906.4L906.3 172L904.8 165.4L904.7 165L907.7 162L908.3 162.5ZM876.5 146.1V146L877.1 139.9V139.2H877.8L885.3 138.5L885.6 138.4L885.9 138.6L891.6 143.3L892.7 142L889.3 138.4L889 138.1L889.1 137.7L889.6 133.2L889.7 132.4L890.5 132.6L896.8 133.6L900.9 130.7L901.1 130.6H901.4L909.6 131.1H910L910.2 131.5L912.6 135.4L912.7 135.6V135.9L912.5 143.9V144.9L904.5 143.3L904.2 143.2L904 142.9L900.6 137.6L898.2 138.3L902.3 143L908.3 144.8H908.5L912.1 148.4L911.6 148.9L908.7 152.1L908.4 152.5L907.9 152.4L904.2 151.6L900.9 157L900.6 157.5L900.1 157.4L896.4 157L896.9 162.8L897 163.6L896.2 163.7L889.7 164.2L889.6 164.3L889.4 164.2L882.5 162.2L882 162.1L881.9 161.7L880.7 157L877.4 152.8L877.3 152.7V152.4L876.5 146.1ZM908.3 106.7L907.5 106.5L907.7 105.7L908.8 101.8L909 101L909.8 101.3L913.2 102.5L914 102.8L913.7 103.5L912.4 106.9L912.2 107.6L911.5 107.4L908.3 106.7ZM912.5 170.3L914.1 168.5L916.9 164.3L917.2 163.8L917.8 164L921.7 164.8L926.8 165.6H927.3L927.4 166L930.1 172.1L930.4 172.8L929.8 173.1L921.9 177.2L921.8 177.3H921.7L913.3 179.1L912.3 179.3V170.5L912.5 170.3ZM915.1 129.2L914.5 128L915.8 128.1L919.4 128.2L919.8 125.4L920 124.7H923.8L925.3 122L925.6 121.6H926.1L932.3 122.2L935.4 118.7L936.3 117.8L939.8 125.5L940 125.9L939.8 126.2L935.1 134.8L934.9 135.2H934.4L918.3 135H917.8L917.6 134.6L915.1 129.2ZM1027.2 140.5L1026.7 140.1L1026.9 139.6L1028 136.5L1028.1 136.1L1032.1 135.3L1032.9 135.1L1033.1 135.8L1034.1 139.6L1034.3 140.2L1033.8 140.5L1030.7 142.3L1030.3 142.5L1029.9 142.3L1027.2 140.5ZM1076 35.6L1075.8 35.3V28.9L1075.9 28.7L1080.9 21.2L1081.2 20.9H1081.6L1089.9 20.2H1090.3L1090.6 20.5L1093.9 25L1094.2 25.4L1094 25.9L1091.1 31.6L1088.6 44.1L1088.5 44.3L1085.7 47.1L1085.2 46.4L1076 35.6ZM1212.8 239.2L1218 241.6L1218.5 241.8L1218.4 242.3L1217.1 257.6L1216.9 259.4L1215.7 258L1206.3 247.4L1206 247.1L1206.1 246.7L1208.8 238.6L1209.5 238.7L1212.6 239.2H1212.8ZM1262.5 557.7L1262.9 558V558.5L1262.5 561.4V561.6L1262.3 561.8L1260.6 563.8L1260 574.6V575.1L1259.6 575.3L1258 575.9L1257.2 576.3L1257 575.5L1255.5 571.3L1255.4 571.1V571L1256 564.9L1254.5 560.2L1254.3 559.6L1254.8 559.3L1256.5 557.9H1256.6L1259.8 556.4L1260.1 556.2L1260.5 556.4L1262.5 557.7ZM1264.2 398.6L1266 401.5L1266.2 401.9L1266.1 402.2L1264.5 406.2L1264.2 407.1L1263.3 406.6L1260.1 404.5L1259.9 404.3L1259.8 404L1259.2 401L1259.6 400.7L1263.1 398.4L1263.8 397.9L1264.2 398.6ZM1268.6 536.9L1268.3 541.3V541.4L1267.4 547.2L1266.9 551.5L1266.7 552.7L1263.9 551.3V550.9L1262.8 543.2V543.1L1262.5 533.7V533.3L1262.7 533.1L1266.5 529.1H1266.6L1268.4 527.5L1268.1 524.7L1268 523.8H1268.9L1272 524H1272.6L1272.8 524.6L1273.8 528.7V529L1273.7 529.3L1271.4 532.8L1268.6 536.9ZM1274.3 565.2L1274.4 565.9L1273.8 566.1L1270.6 567.2L1269.9 567.5L1269.6 566.8L1268.6 564.4L1268.5 564.3V564.1L1268.6 561.3V561L1268.8 560.8L1270.6 559.1L1271.2 558.5L1271.8 559.2L1273.5 561.6L1273.6 561.7V561.9L1274.3 565.2ZM1274.9 415.6L1271.4 417.3L1270.8 417.5L1270.4 417L1266.6 412.1L1266.4 411.8V411.5L1267.2 401.7L1267.3 400.7L1268.2 401L1271.2 401.8L1271.6 402L1274.3 404.6L1274.6 404.8V405.1L1275.3 414.8L1275.4 415.4L1274.9 415.6ZM1275.6 397.6L1276.2 398.2L1275.6 398.8L1273.8 400.8L1273.4 401.2L1272.9 401L1269.4 399.7L1268.8 399.4L1268.9 398.8L1269.4 396.4L1269.5 396.2L1271.1 394.6L1271.6 394.2L1272.2 394.6L1275.6 397.6ZM1280.1 425.6L1280.7 425.9L1280.6 426.6L1279.9 429L1279.8 429.3L1279.5 429.5L1275 431.5L1274.3 431.9L1273.9 431.2L1272.3 427.5L1272.2 427.3V427.1L1272.7 423.5L1272.9 422.4L1273.8 422.9L1280.1 425.6ZM1281.7 511.6L1281.1 504.3V504.1L1281 504L1278.5 499.9L1277.9 499L1277.2 499.7L1274.3 502.7L1274 503V503.3L1274.2 509.5L1274.3 516L1274.5 519V519.8H1278.9L1279.1 519.2L1281.7 511.9V511.6ZM1284 456L1284.3 456.5L1283.8 456.9L1280.7 459.9L1280.1 460.5L1279.6 459.8L1277 456.1L1276.7 455.7L1277 455.3L1278.7 452L1278.9 451.5L1279.5 451.6L1281.4 451.9H1281.8L1282 452.3L1284 456ZM1281.4 466.6L1284.5 467.3L1285.2 467.4L1285.1 468.2L1284.5 472.7L1284.4 473.2L1284 473.3L1281.6 474.2L1281 474.4L1280.7 473.8L1278.9 471L1278.7 470.7L1278.9 470.3L1280.5 467L1280.8 466.4L1281.4 466.6ZM1287.9 484.2L1288.2 485L1287.3 485.2L1281.4 486.8L1280.7 487L1280.4 486.3L1278.5 480.9L1278.3 480.5L1278.6 480.1L1281.2 477.4L1281.5 477.1L1282 477.2L1285.4 478.2L1285.8 478.3L1285.9 478.7L1287.9 484.2ZM1288 270.2L1288.4 270.9L1287.7 271.3L1283.8 273.3L1283.6 273.4H1283.4L1273.9 271.9L1273.6 271.8L1273.4 271.5L1270.9 267.7L1270.3 266.8L1271.4 266.5L1277.8 265H1278.1L1285.1 265.9H1285.5L1285.7 266.3L1288 270.2ZM1299.3 259.1L1298.1 260.1L1291.6 265.4L1291.1 265.9L1286.4 261.2L1287.5 260.8L1294.5 258.1L1294.7 258L1294.9 258.1L1297.7 258.8L1299.3 259.1Z" stroke="#BEBEE5" stroke-width="2"/>
</svg>
